# xmcd
#
# Track frame offsets: 
#        150
#        20652
#        39602
#        52002
#        77152
#        100102
#        116717
#        129707
#        147012
#        170455
#        184515
#        203800
#        225155
#        245917
#        263030
#        278790
#
# Disc length: 3907 seconds
#
# Revision: 2
# Processed by: cddbd v1.5.2PL0 Copyright (c) Steve Scherf et al.
# Submitted via: ExactAudioCopy v0.95b4
#
DISCID=df0f4110
DTITLE=Tower Of Power - The Very Best Of Tower Of Power: The Warner Ye
DTITLE=ars
DYEAR=2001
DGENRE=Funk
TTITLE0=You Got To Funkifize
TTITLE1=What Happened To The World That Day?
TTITLE2=Down To The Nightclub
TTITLE3=You're Still A Young Man
TTITLE4=What Is Hip?
TTITLE5=So Very Hard To Go
TTITLE6=This Time It's Real
TTITLE7=Will I Ever Find A Love?
TTITLE8=Soul Vaccination
TTITLE9=Time Will Tell
TTITLE10=Below Us, All The City Lights
TTITLE11=Don't Change Horses (In The Middle Of A Stream)
TTITLE12=Willing To Learn
TTITLE13=Only So Much Oil In The Ground
TTITLE14=I Won't Leave Unless You Want Me To
TTITLE15=You're So Wonderful, So Marvelous
EXTD=
EXTT0=
EXTT1=
EXTT2=
EXTT3=
EXTT4=
EXTT5=
EXTT6=
EXTT7=
EXTT8=
EXTT9=
EXTT10=
EXTT11=
EXTT12=
EXTT13=
EXTT14=
EXTT15=
PLAYORDER=
